<svg viewBox="0 0 322 98" xmlns="http://www.w3.org/2000/svg"><circle cx="12.6" cy="12.6" r="12.6" fill="#48A8AF"/><path fill="#0066CC" d="M64,44.6c5.8,0,9.3,3,11.1,8.1h22.7C94.2,36,81.9,26.5,64.5,26.5c-20.7,0-35,13.9-35,35.8S43.8,98,64.2,98C81.6,98,94,87.9,97.5,71.8H74.8c-1.8,5-5.3,8.1-11.1,8.1c-7.6,0-12.8-6-12.8-17.6S56.4,44.6,64,44.6z"/><path fill="#0066CC" d="M271.1,47.6c0-3.3,2.8-5.3,7.8-5.3c6,0,9.6,3,10.3,7.8h19.7c-1.3-13.6-11.3-23.7-29.2-23.7c-18.1,0-28.2,9.8-28.2,21.4c0,25.4,37.8,17.4,37.8,28.7c0,3-2.8,5.5-8.3,5.5c-5.8,0-10.3-3.3-10.6-8.1h-21.2c1,13.4,13.4,23.7,32,23.7c17.4,0,28.2-9.1,28.2-21.2C308.9,50.9,271.1,58.7,271.1,47.6z"/><path fill="#0066CC" d="M12.6,31.5c-4,0-7.6-1.3-10.6-3.3V97h21.4V28.2C20.2,30.2,16.6,31.5,12.6,31.5z"/><rect x="101.5" y="27.5" fill="#0066CC" width="21.4" height="69.5"/><path fill="#0066CC" d="M216.9,26.7c-10.1,0-18.9,5.5-23.4,12.8c-4.8-8.3-13.1-12.8-23.7-12.8c-9.1,0-16.1,3.8-20.4,9.6v-8.8H128V97h21.4V59.2c0-9.1,5.3-14.1,13.4-14.1s13.4,5,13.4,14.1V97h21.2V59.2c0-9.1,5.3-14.1,13.4-14.1s13.4,5,13.4,14.1V97h21.2V56.2C245.4,37.5,234.3,26.7,216.9,26.7z"/></svg>
