<svg width="161" height="29" viewBox="0 0 161 29" fill="none" xmlns="http://www.w3.org/2000/svg">
<path d="M32.9 6.95256V22.7526H28.9V21.0526C28.1 22.3526 26.4 23.1526 24.1 23.1526C20.1 23.1526 18.1 21.1526 18.1 18.1526V6.95256H22.4V17.0526C22.4 18.7526 23.4 19.7526 25.2 19.7526C27.3 19.7526 28.6 18.5526 28.6 16.4526V6.95256H33H32.9ZM60.7 11.6526V22.6526H56.4V12.8526C56.4 11.0526 55.6 9.85256 53.8 9.85256C51.8 9.85256 50.8 11.1526 50.8 13.0526V22.7526H46.5V12.7526C46.5 10.7526 45.6 9.75256 43.9 9.75256C41.9 9.75256 40.9 11.0526 40.9 12.9526V22.7526H36.6V6.95256H40.6V8.75256C41.6 7.15256 43.2 6.45256 45.4 6.45256C47.5 6.45256 49.1 7.25256 50.1 8.75256C50.6837 7.99171 51.4442 7.38461 52.3154 6.98384C53.1866 6.58307 54.1424 6.40072 55.1 6.45256C58.7 6.45256 60.7 8.45256 60.7 11.6526ZM95.1 22.6526H90.8V0.952563H95.1V22.7526V22.6526ZM141.5 22.6526H137.2V7.05256H141.5V22.7526V22.6526ZM137.2 4.65256H141.6V0.752563H137.2V4.55256V4.65256ZM157.6 17.3526C155.8 19.0526 154.6 19.7526 153 19.7526C152.147 19.7774 151.308 19.5288 150.607 19.043C149.905 18.5573 149.377 17.8598 149.1 17.0526V12.5526C149.382 11.7284 149.925 11.0187 150.647 10.5314C151.369 10.0441 152.23 9.80571 153.1 9.85256C154.5 9.85256 155.6 10.2526 157.4 11.8526L160.1 9.45256C159.223 8.47121 158.142 7.69399 156.933 7.17566C155.724 6.65733 154.415 6.4105 153.1 6.45256C149.1 6.45256 146.1 8.35256 144.9 11.5526V18.0526C146.1 21.2526 149.1 23.1526 152.9 23.1526C155.9 23.1526 158.1 22.1526 160.4 19.5526L157.6 17.3526ZM8.8 13.0526L6.3 12.4526L5.1 11.8526V10.6526C5.5 10.0526 6.4 9.65256 7.7 9.65256C9.5 9.65256 10.7 10.0526 12.7 11.5526L15.1 8.95256C13.0672 7.23171 10.461 6.33918 7.8 6.45256C4.5 6.45256 2.2 7.75256 1.3 9.45256V13.4526C2 14.8526 3.7 15.5526 7 16.2526L9.5 16.7526C10.1 16.9526 10.7 17.2526 11 17.6526V18.9526C10.5 19.6526 9.5 19.9526 8.2 19.9526C7.27582 19.9658 6.35816 19.7959 5.5 19.4526C4.42346 18.9905 3.41433 18.385 2.5 17.6526L0 20.1526C2.7 22.4526 5 23.1526 8.1 23.1526C11.5 23.1526 14 21.9526 14.9 19.9526V15.9526C14.1 14.5526 12.2 13.7526 8.9 12.9526L8.8 13.0526ZM72 6.45256C68.2 6.45256 65.1 8.45256 63.9 11.4526V18.1526C65.1 21.1526 68.2 23.1526 72 23.1526C76 23.1526 79 21.1526 80.1 18.1526V11.4526C78.9 8.45256 75.9 6.45256 72.1 6.45256H72ZM76 17.1526C75.701 17.9581 75.1505 18.6459 74.43 19.1142C73.7096 19.5824 72.8576 19.8063 72 19.7526C70.2 19.7526 68.7 18.7526 68 17.1526V12.4526C68.7 10.8526 70 9.75256 72 9.75256C72.8698 9.70571 73.7311 9.94405 74.453 10.4314C75.175 10.9187 75.7182 11.6284 76 12.4526V17.1526ZM106.6 6.45256C102.8 6.45256 99.7 8.45256 98.5 11.4526V18.1526C99.7 21.1526 102.8 23.1526 106.6 23.1526C110.5 23.1526 113.5 21.1526 114.7 18.1526V11.4526C113.5 8.45256 110.5 6.45256 106.7 6.45256H106.6ZM110.6 17.1526C110.301 17.9581 109.75 18.6459 109.03 19.1142C108.31 19.5824 107.458 19.8063 106.6 19.7526C104.8 19.7526 103.3 18.7526 102.6 17.1526V12.4526C102.92 11.654 103.472 10.9698 104.186 10.4885C104.899 10.0072 105.74 9.75081 106.6 9.75256C108.6 9.75256 109.9 10.7526 110.6 12.4526V17.1526ZM129.6 6.95256V8.75256C128.6 7.15256 126.9 6.45256 124.6 6.45256C123.084 6.38515 121.587 6.80515 120.327 7.65098C119.067 8.49681 118.111 9.72398 117.6 11.1526V17.6526C118.098 19.0902 119.05 20.3267 120.313 21.1747C121.576 22.0227 123.081 22.4362 124.6 22.3526C125.499 22.4006 126.397 22.2458 127.228 21.8996C128.059 21.5534 128.801 21.0246 129.4 20.3526V21.5526C129.4 24.1526 127.8 25.4526 125.3 25.4526C123.4 25.4526 121.9 24.8526 119.5 23.4526L117.4 26.4526C119.7 27.9526 122.5 28.7526 125.4 28.7526C130.1 28.7526 133.6 26.3526 133.6 21.9526V6.95256H129.6ZM129.1 16.5526C128.5 18.0526 127.1 18.9526 125.5 18.9526C124.716 18.9592 123.947 18.7353 123.289 18.3086C122.632 17.8818 122.114 17.2712 121.8 16.5526V12.2526C122.114 11.5339 122.632 10.9233 123.289 10.4966C123.947 10.0699 124.716 9.84592 125.5 9.85256C127.2 9.85256 128.5 10.7526 129.1 12.2526V16.5526Z" fill="#101827"/>
</svg>
