<svg viewBox="0 0 24 24" xmlns="http://www.w3.org/2000/svg"><title>Microsoft Teams</title><path fill="#6264A7" d="M20.625 8.073c.574 0 1.125.234 1.529.65.405.418.63.983.63 1.573v5.496c0 1.734-.675 3.4-1.877 4.628a6.34 6.34 0 01-4.533 1.916h-.893c-.234 0-.459-.095-.625-.264a.902.902 0 01-.258-.637V9.747c0-.444.173-.87.48-1.184a1.633 1.633 0 011.16-.49h4.387zM16.5 2.25a3 3 0 110 6 3 3 0 010-6zm-5.25 3a2.25 2.25 0 110 4.5 2.25 2.25 0 010-4.5zM8.016 9.667c.82 0 1.608.333 2.188.925a3.208 3.208 0 01.906 2.235v5.746c0 .51-.199.999-.553 1.36a1.872 1.872 0 01-1.335.567H3.14c-.5 0-.981-.204-1.335-.567a1.952 1.952 0 01-.553-1.36v-5.746c0-.839.326-1.643.906-2.235a3.052 3.052 0 012.188-.925h3.67z"/></svg>
