<?xml version="1.0" encoding="utf-8"?>
<!-- Generator: Adobe Illustrator 25.1.0, SVG Export Plug-In . SVG Version: 6.00 Build 0)  -->
<svg version="1.1" id="Ebene_1" xmlns="http://www.w3.org/2000/svg" xmlns:xlink="http://www.w3.org/1999/xlink" x="0px" y="0px"
	 viewBox="0 0 452.1 279.8" style="enable-background:new 0 0 452.1 279.8;" xml:space="preserve">
<style type="text/css">
	.st0{fill:#FFFFFF;}
</style>
<path class="st0" d="M343,143.6c11.8,0,20.7-7.7,24.1-22.1l-1.7-0.6c-4.3,12.9-11.4,18.5-20.3,18.5c-12.6,0-19.2-9.9-19.2-27.6
	c0-16.9,5.5-28.9,18.9-28.9c9.3,0,16.1,6.9,18.1,18.2h2V81.1h-2v0.6c0,1.6-0.7,2.9-2.3,2.9c-0.8,0-1.5-0.3-2.5-0.8
	c-4.1-2.2-7.8-3.9-13.5-3.9c-13.9,0-29.7,10.9-29.7,31.8S329.3,143.6,343,143.6 M271.6,219.9h3l3-1.5c30-30,31.5-31.5,31.5-66
	s-1.5-36-31.5-66l-3-1.5h-3l-1.5,1.5v10.5c22.5,22.5,24,24,24,55.5s-1.5,33-24,55.5v10.5L271.6,219.9z M275.5,132.1v-10.5l-1.5-1.5
	h-9l-1.5,1.5l-13.5,51h-1.5l-15-51l-1.5-1.5h-13.5l-1.5,1.5l-15,51h-1.5l-13.5-51l-1.5-1.5h-9l-1.5,1.5v10.5l18,61.5l1.5,1.5H208
	l1.5-1.5l15-52.5h1.5l15,52.5l1.5,1.5H256l1.5-1.5L275.5,132.1z M180,218.4v-10.5c-22.5-22.5-24-24-24-55.5s1.5-33,24-55.5V86.3
	l-1.5-1.5h-3l-3,1.5c-30,30-31.5,31.5-31.5,66s1.5,36,31.5,66l3,1.5h3L180,218.4z"/>
</svg>
