<svg width="140" height="36" viewBox="0 0 140 36" fill="none" xmlns="http://www.w3.org/2000/svg">
<path d="M23.0627 10.008L18.8453 0.46579L16.1663 6.60634H16.165L19.2924 13.7763L26.4613 16.9042L26.4675 16.9017L32.6034 14.2235L23.0602 10.0055L23.0627 10.008Z" fill="#011325"/>
<path d="M23.1401 23.799L32.6816 19.5816L26.5415 16.9026L19.372 20.03L16.2444 27.1989H16.2432L16.2456 27.205L18.9236 33.341L23.1413 23.7977L23.1401 23.799Z" fill="#011325"/>
<path d="M9.38277 23.8004L13.5292 33.3426L16.1632 27.202H16.1644L13.0896 20.032L6.04126 16.9042L6.03517 16.9066L0 19.5824L9.38277 23.8004Z" fill="#011325"/>
<path d="M9.38367 10.009L0 14.2251L6.03775 16.9042L13.0877 13.7768L16.1632 6.60788H16.1644L16.162 6.60169L13.531 0.465775L9.38367 10.009Z" fill="#011325"/>
<path d="M129.061 35.5342H125.86L129.495 27.7247L122.191 11.9725H125.36L131.096 24.6008L136.798 11.9725H140L129.061 35.5342Z" fill="#011325"/>
<path d="M118.522 28.6851C115.58 28.6851 113.407 27.0591 113.407 23.6081V14.5491H109.863V11.9276H113.407V7.3152H116.282V11.9276H121.096V14.5491H116.282V23.2431C116.282 25.3668 117.218 26.0636 119.057 26.0636C119.759 26.0636 120.561 25.9641 121.096 25.7318V28.2869C120.394 28.5192 119.558 28.6851 118.522 28.6851Z" fill="#011325"/>
<path d="M106.472 7.54718C105.293 7.54718 104.384 6.68032 104.384 5.51339C104.384 4.41315 105.293 3.47961 106.472 3.47961C107.651 3.47961 108.493 4.41315 108.493 5.51339C108.493 6.68032 107.651 7.54718 106.472 7.54718ZM104.99 28.6852V12.0148H107.887V28.6852H104.99Z" fill="#011325"/>
<path d="M94.2471 28.6852V11.867H97.0923V15.1297C97.7208 12.977 99.8382 11.6988 101.724 11.6988C102.154 11.6988 102.584 11.7324 103.014 11.8334V14.827C102.485 14.5915 102.022 14.5579 101.459 14.5579C99.375 14.5579 97.0923 16.4079 97.0923 20.3433V28.6852H94.2471Z" fill="#011325"/>
<path d="M81.3598 28.9591C76.6692 28.9591 73.1514 25.0756 73.1514 20.329C73.1514 15.5824 76.6692 11.6988 81.3598 11.6988C83.906 11.6988 86.1508 12.9933 87.2564 14.5866V12.0307H90.1377V28.6272H87.2564V26.0713C86.1508 27.6646 83.906 28.9591 81.3598 28.9591ZM81.7953 26.3369C85.1457 26.3369 87.4909 23.6815 87.4909 20.329C87.4909 16.9765 85.1457 14.3211 81.7953 14.3211C78.4114 14.3211 76.0662 16.9765 76.0662 20.329C76.0662 23.6815 78.4114 26.3369 81.7953 26.3369Z" fill="#011325"/>
<path d="M67.6709 28.6852V3.47961H70.4106V28.6852H67.6709Z" fill="#011325"/>
<path d="M54.7206 28.9593C47.9087 28.9593 42.4658 23.5776 42.4658 16.7675C42.4658 9.95732 47.9087 4.57565 54.7206 4.57565C59.2619 4.57565 63.0685 6.8014 65.2056 10.2895L62.601 11.8509C60.9648 9.19326 58.1933 7.49903 54.7206 7.49903C49.5449 7.49903 45.6046 11.5851 45.6046 16.7675C45.6046 21.9498 49.5449 26.0359 54.7206 26.0359C58.1933 26.0359 60.9648 24.3417 62.601 21.684L65.2056 23.2454C63.0685 26.7335 59.2619 28.9593 54.7206 28.9593Z" fill="#011325"/>
</svg>
