<svg width="32" height="32" viewBox="0 0 32 32" fill="none" xmlns="http://www.w3.org/2000/svg">
<path d="M20.49 8.28L16.35 0L13.72 5.77H13.72L16.78 12.03L23.19 15.06L23.19 15.06L28.8 12.72L20.49 8.28Z" fill="#0a1628"/>
<path d="M20.55 20.42L28.8 16.74L23.19 14.4L16.78 17.46L13.72 23.72H13.72L13.72 23.73L16.35 29.5L20.55 20.42Z" fill="#0a1628"/>
<path d="M8.54 20.42L12.64 29.5L15.23 23.73H15.24L12.24 17.47L5.93 14.4L5.93 14.4L0.4 16.74L8.54 20.42Z" fill="#0a1628"/>
<path d="M8.54 8.28L0.4 12.72L5.93 15.06L12.23 12.03L15.23 5.77H15.24L15.24 5.77L12.64 0L8.54 8.28Z" fill="#0a1628"/>
</svg>
