<svg xmlns="http://www.w3.org/2000/svg" viewBox="0 0 512 169" fill="#007dc1">
  <!-- Okta official wordmark paths -->
  <path d="M79.3 0C35.5 0 0 35.5 0 79.3s35.5 79.3 79.3 79.3 79.3-35.5 79.3-79.3S123.1 0 79.3 0zm0 118.9c-21.9 0-39.6-17.7-39.6-39.6s17.7-39.6 39.6-39.6 39.6 17.7 39.6 39.6-17.7 39.6-39.6 39.6z"/>
  <path d="M227.3 0c-5.5 0-10 4.5-10 10v48.3c-10.4-11.7-25.5-19.1-42.3-19.1-31.4 0-56.8 25.4-56.8 56.8s25.4 56.8 56.8 56.8c16.8 0 31.9-7.4 42.3-19.1v9.1c0 5.5 4.5 10 10 10s10-4.5 10-10V10c0-5.5-4.5-10-10-10zm-52.3 118.9c-21.9 0-39.6-17.7-39.6-39.6s17.7-39.6 39.6-39.6 39.6 17.7 39.6 39.6-17.7 39.6-39.6 39.6z"/>
  <path d="M337.5 39.2c-5.5 0-10 4.5-10 10v9.1c-10.4-11.7-25.5-19.1-42.3-19.1-31.4 0-56.8 25.4-56.8 56.8s25.4 56.8 56.8 56.8c16.8 0 31.9-7.4 42.3-19.1v9.1c0 5.5 4.5 10 10 10s10-4.5 10-10V49.2c0-5.5-4.5-10-10-10zm-52.3 79.7c-21.9 0-39.6-17.7-39.6-39.6s17.7-39.6 39.6-39.6 39.6 17.7 39.6 39.6-17.7 39.6-39.6 39.6z"/>
  <path d="M461.8 39.2h-29.6V10c0-5.5-4.5-10-10-10s-10 4.5-10 10v29.2h-29.6c-5.5 0-10 4.5-10 10s4.5 10 10 10h29.6v93.6c0 5.5 4.5 10 10 10s10-4.5 10-10V59.2h29.6c5.5 0 10-4.5 10-10s-4.5-10-10-10z"/>
  <path d="M502 39.2c-5.5 0-10 4.5-10 10v93.6c0 5.5 4.5 10 10 10s10-4.5 10-10V49.2c0-5.5-4.5-10-10-10z"/>
  <path d="M502 0c-5.5 0-10 4.5-10 10s4.5 10 10 10 10-4.5 10-10-4.5-10-10-10z"/>
</svg>